<svg width="128" height="128" viewBox="0 0 128 128" xmlns="http://www.w3.org/2000/svg">
  <defs>
    <!-- 메인 그라디언트 -->
    <linearGradient id="mainGrad" x1="0%" y1="0%" x2="100%" y2="100%">
      <stop offset="0%" style="stop-color:#0f172a"/>
      <stop offset="100%" style="stop-color:#1e293b"/>
    </linearGradient>
    
    <!-- 브레이스 그라디언트 -->
    <linearGradient id="braceGrad" x1="0%" y1="0%" x2="100%" y2="100%">
      <stop offset="0%" style="stop-color:#3b82f6"/>
      <stop offset="100%" style="stop-color:#6366f1"/>
    </linearGradient>
    
    <!-- 속성 색상들 -->
    <linearGradient id="prop1" x1="0%" y1="0%" x2="100%" y2="0%">
      <stop offset="0%" style="stop-color:#ef4444"/>
      <stop offset="100%" style="stop-color:#dc2626"/>
    </linearGradient>
    
    <linearGradient id="prop2" x1="0%" y1="0%" x2="100%" y2="0%">
      <stop offset="0%" style="stop-color:#10b981"/>
      <stop offset="100%" style="stop-color:#059669"/>
    </linearGradient>
    
    <linearGradient id="prop3" x1="0%" y1="0%" x2="100%" y2="0%">
      <stop offset="0%" style="stop-color:#f59e0b"/>
      <stop offset="100%" style="stop-color:#d97706"/>
    </linearGradient>
    
    <linearGradient id="prop4" x1="0%" y1="0%" x2="100%" y2="0%">
      <stop offset="0%" style="stop-color:#8b5cf6"/>
      <stop offset="100%" style="stop-color:#7c3aed"/>
    </linearGradient>
    
    <!-- 그림자 -->
    <filter id="softShadow" x="-50%" y="-50%" width="200%" height="200%">
      <feDropShadow dx="0" dy="4" stdDeviation="6" flood-color="rgba(0,0,0,0.4)"/>
    </filter>
  </defs>
  
  <!-- 배경 -->
  <rect width="128" height="128" rx="24" fill="url(#mainGrad)" filter="url(#softShadow)"/>
  
  <!-- 메인 CSS 브레이스 -->
  <g transform="translate(64, 64)">
    <!-- 왼쪽 브레이스 { -->
    <path d="M-22 -28 C-32 -28 -38 -22 -38 -12 L-38 -6 C-38 -3 -40 -1 -43 -1 C-40 -1 -38 1 -38 4 L-38 10 C-38 20 -32 26 -22 26" 
          stroke="url(#braceGrad)" stroke-width="6" fill="none" stroke-linecap="round"/>
    
    <!-- 오른쪽 브레이스 } -->
    <path d="M22 -28 C32 -28 38 -22 38 -12 L38 -6 C38 -3 40 -1 43 -1 C40 -1 38 1 38 4 L38 10 C38 20 32 26 22 26" 
          stroke="url(#braceGrad)" stroke-width="6" fill="none" stroke-linecap="round"/>
  </g>
  
  <!-- 추출되는 CSS 속성들 (브레이스에서 밖으로) -->
  <g>
    <!-- 큰 속성들 (오른쪽) -->
    <g transform="translate(85, 42)">
      <rect x="0" y="0" width="28" height="8" rx="4" fill="url(#prop1)"/>
      <text x="14" y="6" font-family="SF Mono, Monaco, monospace" font-size="5" font-weight="700" 
            text-anchor="middle" fill="#ffffff">color</text>
    </g>
    
    <g transform="translate(88, 56)">
      <rect x="0" y="0" width="24" height="7" rx="3.5" fill="url(#prop2)"/>
      <text x="12" y="5.5" font-family="SF Mono, Monaco, monospace" font-size="4.5" font-weight="700" 
            text-anchor="middle" fill="#ffffff">font</text>
    </g>
    
    <g transform="translate(91, 69)">
      <rect x="0" y="0" width="20" height="6" rx="3" fill="url(#prop3)"/>
      <text x="10" y="4.5" font-family="SF Mono, Monaco, monospace" font-size="4" font-weight="700" 
            text-anchor="middle" fill="#ffffff">size</text>
    </g>
    
    <g transform="translate(93, 81)">
      <rect x="0" y="0" width="18" height="5" rx="2.5" fill="url(#prop4)"/>
      <text x="9" y="4" font-family="SF Mono, Monaco, monospace" font-size="3.5" font-weight="700" 
            text-anchor="middle" fill="#ffffff">pad</text>
    </g>
    
    <!-- 작은 속성들 (왼쪽) -->
    <g transform="translate(12, 48)">
      <rect x="0" y="0" width="16" height="5" rx="2.5" fill="url(#prop1)" opacity="0.8"/>
      <text x="8" y="3.5" font-family="SF Mono, Monaco, monospace" font-size="3" font-weight="700" 
            text-anchor="middle" fill="#ffffff">bg</text>
    </g>
    
    <g transform="translate(8, 62)">
      <rect x="0" y="0" width="14" height="4" rx="2" fill="url(#prop2)" opacity="0.7"/>
      <text x="7" y="3" font-family="SF Mono, Monaco, monospace" font-size="2.5" font-weight="700" 
            text-anchor="middle" fill="#ffffff">w</text>
    </g>
    
    <g transform="translate(15, 75)">
      <rect x="0" y="0" width="12" height="4" rx="2" fill="url(#prop3)" opacity="0.6"/>
      <text x="6" y="3" font-family="SF Mono, Monaco, monospace" font-size="2.5" font-weight="700" 
            text-anchor="middle" fill="#ffffff">h</text>
    </g>
    
    <!-- 미세한 속성들 (점들) -->
    <circle cx="18" cy="35" r="2" fill="url(#prop4)" opacity="0.5"/>
    <circle cx="25" cy="92" r="1.5" fill="url(#prop1)" opacity="0.4"/>
    <circle cx="105" cy="38" r="1.5" fill="url(#prop2)" opacity="0.4"/>
    <circle cx="110" cy="88" r="1" fill="url(#prop3)" opacity="0.3"/>
  </g>
  
  <!-- 추출 흐름을 나타내는 파티클 -->
  <g fill="#ffffff" opacity="0.2">
    <circle cx="78" cy="45" r="1">
      <animate attributeName="opacity" values="0.2;0.6;0.2" dur="2s" repeatCount="indefinite"/>
    </circle>
    <circle cx="82" cy="58" r="0.8">
      <animate attributeName="opacity" values="0.2;0.5;0.2" dur="2.5s" repeatCount="indefinite"/>
    </circle>
    <circle cx="85" cy="72" r="0.6">
      <animate attributeName="opacity" values="0.2;0.4;0.2" dur="3s" repeatCount="indefinite"/>
    </circle>
  </g>
  
  <!-- 라벨 -->
  <text x="64" y="16" font-family="Inter, -apple-system, sans-serif" font-size="9" font-weight="800" 
        text-anchor="middle" fill="#3b82f6">CSS PICKER</text>
</svg>