<svg width="48" height="48" viewBox="0 0 48 48" xmlns="http://www.w3.org/2000/svg">
  <!-- 배경 그라디언트 정의 -->
  <defs>
    <linearGradient id="bgGradient48" x1="0%" y1="0%" x2="100%" y2="100%">
      <stop offset="0%" style="stop-color:#667eea"/>
      <stop offset="100%" style="stop-color:#764ba2"/>
    </linearGradient>
    
    <linearGradient id="dropperGradient48" x1="0%" y1="0%" x2="100%" y2="100%">
      <stop offset="0%" style="stop-color:#ff6b6b"/>
      <stop offset="50%" style="stop-color:#4ecdc4"/>
      <stop offset="100%" style="stop-color:#45b7d1"/>
    </linearGradient>
  </defs>
  
  <!-- 메인 배경 -->
  <rect width="48" height="48" rx="10" ry="10" fill="url(#bgGradient48)"/>
  
  <!-- CSS 여는 브레이스 { -->
  <path d="M12 14 C10 14 8 16 8 18 L8 20 C8 21 7 22 6 22 C7 22 8 23 8 24 L8 26 C8 28 10 30 12 30" 
        stroke="#ffffff" stroke-width="2.5" fill="none" stroke-linecap="round"/>
  
  <!-- CSS 닫는 브레이스 } -->
  <path d="M36 14 C38 14 40 16 40 18 L40 20 C40 21 41 22 42 22 C41 22 40 23 40 24 L40 26 C40 28 38 30 36 30" 
        stroke="#ffffff" stroke-width="2.5" fill="none" stroke-linecap="round"/>
  
  <!-- 컬러 피커 드롭퍼 -->
  <circle cx="24" cy="18" r="4" fill="url(#dropperGradient48)" stroke="#ffffff" stroke-width="1"/>
  
  <!-- 드롭퍼 핸들 -->
  <path d="M24 14 L26 12 L27 13 L25 15 Z" fill="#ffffff"/>
  
  <!-- 드롭퍼 스틱 -->
  <rect x="23" y="22" width="2" height="6" rx="1" fill="#ffffff"/>
  
  <!-- 컬러 팔레트 도트들 -->
  <circle cx="16" cy="36" r="3" fill="#ff6b6b" stroke="#ffffff" stroke-width="1"/>
  <circle cx="24" cy="36" r="3" fill="#4ecdc4" stroke="#ffffff" stroke-width="1"/>
  <circle cx="32" cy="36" r="3" fill="#45b7d1" stroke="#ffffff" stroke-width="1"/>
</svg>