<svg width="16" height="16" viewBox="0 0 16 16" xmlns="http://www.w3.org/2000/svg">
  <!-- 배경 그라디언트 정의 -->
  <defs>
    <linearGradient id="bgGradient16" x1="0%" y1="0%" x2="100%" y2="100%">
      <stop offset="0%" style="stop-color:#667eea"/>
      <stop offset="100%" style="stop-color:#764ba2"/>
    </linearGradient>
  </defs>
  
  <!-- 메인 배경 -->
  <rect width="16" height="16" rx="3" ry="3" fill="url(#bgGradient16)"/>
  
  <!-- CSS 여는 브레이스 { (단순화) -->
  <path d="M4 4 C3 4 3 5 3 5 L3 6 C3 6 2 6 2 7 C2 7 3 7 3 7 L3 8 C3 8 3 9 4 9" 
        stroke="#ffffff" stroke-width="1" fill="none" stroke-linecap="round"/>
  
  <!-- CSS 닫는 브레이스 } (단순화) -->
  <path d="M12 4 C13 4 13 5 13 5 L13 6 C13 6 14 6 14 7 C14 7 13 7 13 7 L13 8 C13 8 13 9 12 9" 
        stroke="#ffffff" stroke-width="1" fill="none" stroke-linecap="round"/>
  
  <!-- 컬러 피커 드롭퍼 (단순화) -->
  <circle cx="8" cy="6" r="1.5" fill="#4ecdc4" stroke="#ffffff" stroke-width="0.5"/>
  
  <!-- 컬러 팔레트 도트들 (단순화) -->
  <circle cx="6" cy="12" r="1" fill="#ff6b6b"/>
  <circle cx="8" cy="12" r="1" fill="#4ecdc4"/>
  <circle cx="10" cy="12" r="1" fill="#45b7d1"/>
</svg>