<svg width="128" height="128" viewBox="0 0 128 128" xmlns="http://www.w3.org/2000/svg">
  <defs>
    <!-- 메인 그라디언트 -->
    <linearGradient id="bgGrad" x1="0%" y1="0%" x2="100%" y2="100%">
      <stop offset="0%" style="stop-color:#1e40af"/>
      <stop offset="100%" style="stop-color:#7c3aed"/>
    </linearGradient>
    
    <!-- 그림자 -->
    <filter id="shadow" x="-50%" y="-50%" width="200%" height="200%">
      <feDropShadow dx="0" dy="4" stdDeviation="8" flood-color="rgba(30, 64, 175, 0.4)"/>
    </filter>
  </defs>
  
  <!-- 배경 -->
  <rect width="128" height="128" rx="28" fill="url(#bgGrad)" filter="url(#shadow)"/>
  
  <!-- 중앙 CSS 브레이스 (더 심플하게) -->
  <g transform="translate(64, 64)" stroke="#ffffff" stroke-width="5" fill="none">
    <!-- 왼쪽 브레이스 -->
    <path d="M-16 -24 Q-24 -24 -24 -16 L-24 -8 Q-24 -4 -28 -4 L-28 4 Q-24 4 -24 8 L-24 16 Q-24 24 -16 24"/>
    
    <!-- 오른쪽 브레이스 -->
    <path d="M16 -24 Q24 -24 24 -16 L24 -8 Q24 -4 28 -4 L28 4 Q24 4 24 8 L24 16 Q24 24 16 24"/>
  </g>
  
  <!-- 추상적 속성들 (점과 선의 조합) -->
  <g>
    <!-- 메인 속성들 (오른쪽으로 흘러나옴) -->
    <g transform="translate(92, 64)">
      <circle cx="0" cy="-12" r="4" fill="#ef4444"/>
      <rect x="8" y="-14" width="16" height="4" rx="2" fill="#ef4444"/>
      
      <circle cx="2" cy="0" r="3" fill="#10b981"/>
      <rect x="8" y="-1.5" width="12" height="3" rx="1.5" fill="#10b981"/>
      
      <circle cx="0" cy="12" r="2.5" fill="#f59e0b"/>
      <rect x="6" y="10.5" width="10" height="3" rx="1.5" fill="#f59e0b"/>
    </g>
    
    <!-- 보조 속성들 (왼쪽) -->
    <g transform="translate(20, 64)">
      <circle cx="0" cy="-8" r="2" fill="#8b5cf6" opacity="0.8"/>
      <circle cx="-4" cy="0" r="1.5" fill="#06b6d4" opacity="0.7"/>
      <circle cx="2" cy="8" r="1" fill="#d946ef" opacity="0.6"/>
    </g>
    
    <!-- 상하 속성들 -->
    <circle cx="64" cy="20" r="2" fill="#84cc16" opacity="0.6"/>
    <circle cx="64" cy="108" r="1.5" fill="#ec4899" opacity="0.5"/>
  </g>
  
  <!-- 연결 흐름선 -->
  <g stroke="rgba(255,255,255,0.2)" stroke-width="1" fill="none">
    <path d="M80 52 Q86 51 92 50"/>
    <path d="M82 64 Q88 64 94 64"/>
    <path d="M80 76 Q86 77 92 78"/>
  </g>
</svg>