<svg width="32" height="32" viewBox="0 0 32 32" xmlns="http://www.w3.org/2000/svg">
  <!-- 배경 그라디언트 정의 -->
  <defs>
    <linearGradient id="bgGradient32" x1="0%" y1="0%" x2="100%" y2="100%">
      <stop offset="0%" style="stop-color:#667eea"/>
      <stop offset="100%" style="stop-color:#764ba2"/>
    </linearGradient>
    
    <linearGradient id="dropperGradient32" x1="0%" y1="0%" x2="100%" y2="100%">
      <stop offset="0%" style="stop-color:#ff6b6b"/>
      <stop offset="50%" style="stop-color:#4ecdc4"/>
      <stop offset="100%" style="stop-color:#45b7d1"/>
    </linearGradient>
  </defs>
  
  <!-- 메인 배경 -->
  <rect width="32" height="32" rx="7" ry="7" fill="url(#bgGradient32)"/>
  
  <!-- CSS 여는 브레이스 { -->
  <path d="M8 9 C7 9 6 10 6 11 L6 13 C6 14 5 14 5 14 C5 14 6 14 6 15 L6 17 C6 18 7 19 8 19" 
        stroke="#ffffff" stroke-width="1.5" fill="none" stroke-linecap="round"/>
  
  <!-- CSS 닫는 브레이스 } -->
  <path d="M24 9 C25 9 26 10 26 11 L26 13 C26 14 27 14 27 14 C27 14 26 14 26 15 L26 17 C26 18 25 19 24 19" 
        stroke="#ffffff" stroke-width="1.5" fill="none" stroke-linecap="round"/>
  
  <!-- 컬러 피커 드롭퍼 -->
  <circle cx="16" cy="12" r="3" fill="url(#dropperGradient32)" stroke="#ffffff" stroke-width="1"/>
  
  <!-- 드롭퍼 핸들 -->
  <path d="M16 9 L17 8 L18 9 L17 10 Z" fill="#ffffff"/>
  
  <!-- 드롭퍼 스틱 -->
  <rect x="15" y="15" width="2" height="4" rx="1" fill="#ffffff"/>
  
  <!-- 컬러 팔레트 도트들 -->
  <circle cx="11" cy="24" r="2" fill="#ff6b6b"/>
  <circle cx="16" cy="24" r="2" fill="#4ecdc4"/>
  <circle cx="21" cy="24" r="2" fill="#45b7d1"/>
</svg>